# xmcd CD database file
# Generated: Son Sep 28 00:52:45 2003 by KSCD
# 
# Track frame offsets:
#       150
#       12922
#       27400
#       38797
#       50580
#       68158
#       81472
#       91638
#       104674
#       118164
#       129489
#       147720
#       159281
#       170671
#       184218
#       197863
#       208977
#       221659
#
# Disc length: 3148 seconds
#
# Revision: 0
# Processed by: cddbd v1.4PL0 Copyright (c) Steve Scherf et al.
# Submitted via: Kscd 1.3.3
#
DISCID=140c4a12
DTITLE=Various Artist - The story of Rhythm and Blues [CD6)
DYEAR=1900
DGENRE=
TTITLE0=Five Red Caps - Boogie Woogie on a Saturday night 
TTITLE1=June Richmond with Andy Kirk - 47th jive 
TTITLE2=Roy Brown - Ain't no rocking no more 
TTITLE3=Wynonie Harris - All she wants to do is rock 
TTITLE4=Muddy Waters - Blow wind blow 
TTITLE5=Julia Lee - I didn't like it the first time 
TTITLE6=Varetta Dillard - Them their eyes 
TTITLE7=Big Maceo - Chicago breakdown 
TTITLE8=Bull Moos Jackson - Why don't you haul off and love me 
TTITLE9=Fluffy Huntee and Buddy Banks Sextet - Fluffy's Debut 
TTITLE10=Howlin' Wolf - Howlin' for my darlin' 
TTITLE11=Gene Phillips - Rock bottom 
TTITLE12=Louis Jordan - At the swingcats ball 
TTITLE13=Nat King Cole - Route 66 
TTITLE14=Louis Jordan - Open the door Richard 
TTITLE15=Amos Milburn - House party tonight 
TTITLE16=Fats Waller - The Joint is jumping 
TTITLE17=Dinah Washington and Lionell Hampton Sextet - I know how to do it 
EXTD=(c) Digimode Entertainment Ltd. UK 
EXTT0=Higginbottom 
EXTT1=R. Sykes 
EXTT2=Brown 
EXTT3=Harris - McRae 
EXTT4=Morganfield 
EXTT5=Gordon - Gomez 
EXTT6=Dillard - Rhodes 
EXTT7=Merriweather 
EXTT8=Glosson - Raney 
EXTT9=Bankes - Pyles 
EXTT10=Burnett 
EXTT11=Josea - Phillips 
EXTT12=Jordan 
EXTT13=B. Troup 
EXTT14=Fletcher - McVea - Manson - Howell 
EXTT15=Milburn 
EXTT16=Waller - Johnson - Razoc 
EXTT17=Feather 
PLAYORDER=
